# xmcd CD database file
#
# Track frame offsets:
#	150
#	13242
#	22507
#	34980
#	43550
#	59877
#	85205
#	99387
#	108197
#	122454
#	132895
#	144987
#	157667
#	169327
#	206832
#	225080
#	236407
#	251547
#	270017
#	286150
#	297917
#	311207
#
# Disc length: 4402 seconds
#
# Revision: 0
# Processed by: cddbd v1.5.1PL0 Copyright (c) Steve Scherf et al.
# Submitted via: CDex 1.50beta9
#
DISCID=1e113016
DTITLE=Marty Robbins - The Essential - disc 2
DYEAR=1900
DGENRE=Country
TTITLE0=19620410 Devil Woman
TTITLE1=19620410 Ruby Ann
TTITLE2=19630107 Smokin' Cigarettes And Drinkin' Coffee Blues
TTITLE3=19640427 i'm Gonna Be A Cowboy
TTITLE4=19690402 (Ghost) Riders In The Sky
TTITLE5=19620627 San Angelo
TTITLE6=19630227 Man Walks Among Us
TTITLE7=19630807 Beautiful Dreamer
TTITLE8=19620207 Beyond The Reef
TTITLE9=19630411 The Hawaiian Wedding Song
TTITLE10=19620208 Yours (Quiereme Mucho)
TTITLE11=19670412 Tonight Carmen
TTITLE12=1965 0302 Ribbon Of Darkness
TTITLE13=19660315 Feleena (From El Paso)
TTITLE14=19661229 Hello Heartache
TTITLE15=19630910 Begging To You
TTITLE16=19680701 I Walk Alone
TTITLE17=19690218 You Gave Me A Mountain
TTITLE18=19700102 My Woman, My Woman, My Wife
TTITLE19=19760520 Among My Souvenirs
TTITLE20=19770929 Return To Me
TTITLE21=19760116 El Paso City
EXTD=
EXTT0=
EXTT1=
EXTT2=
EXTT3=
EXTT4=
EXTT5=
EXTT6=
EXTT7=
EXTT8=
EXTT9=
EXTT10=
EXTT11=
EXTT12=
EXTT13=
EXTT14=
EXTT15=
EXTT16=
EXTT17=
EXTT18=
EXTT19=
EXTT20=
EXTT21=
PLAYORDER=
